<?xml version="1.0" standalone="no"?><!DOCTYPE svg PUBLIC "-//W3C//DTD SVG 1.1//EN" "http://www.w3.org/Graphics/SVG/1.1/DTD/svg11.dtd"><svg t="1523775637032" class="icon" style="" viewBox="0 0 1024 1024" version="1.1" xmlns="http://www.w3.org/2000/svg" p-id="1087" xmlns:xlink="http://www.w3.org/1999/xlink" width="200" height="200"><defs><style type="text/css"></style></defs><path d="M512.456395 80.517825c0 0-204.63361-16.793478-197.428511 209.889311-37.437657 21.039175-33.144888 36.380582-33.144888 62.9671 0 26.584472 17.293875 57.370639 37.468356 67.166749 0 0 44.674479 191.697997 193.106066 188.901301L512.457418 80.517825z" p-id="1088"></path><path d="M511.911996 80.517825c0 0 203.191772-12.593829 197.428511 209.889311 37.559431 20.835538 33.143864 36.380582 33.143864 62.9671 0 26.584472-17.292851 57.370639-37.468356 67.166749 0 0-44.673455 191.697997-193.105043 188.901301L511.910972 80.517825z" p-id="1089"></path><path d="M346.731956 638.827547c0 0-265.160125 51.77213-278.128485 156.716274-12.970406 104.94619 10.087753 134.333498 38.908148 144.124492l404.945799 0L512.457418 650.02047c0 0-47.556109 4.198625-48.996924 15.391549-1.441838 11.19497 9.953699 53.708226 19.961634 61.661362-12.738116 17.668405-23.653723 109.539812-21.835308 139.572826L346.731956 638.827547z" p-id="1090"></path><path d="M677.637458 638.827547c0 0 265.159102 51.77213 278.129508 156.716274 12.969383 104.94619-10.087753 134.333498-38.909172 144.124492L511.911996 939.668313 511.911996 650.02047c0 0 47.556109 4.198625 48.996924 15.391549 1.440815 11.19497-9.953699 53.708226-19.960611 61.661362 12.738116 17.668405 23.654746 109.539812 21.835308 139.572826L677.637458 638.827547z" p-id="1091"></path></svg>